<mxfile host="app.diagrams.net" modified="2022-11-10T07:54:38.178Z" agent="5.0 (Windows)" etag="PcnTibCo2rjLfiFqKAZh" version="20.5.3" type="github">
  <diagram id="C5RBs43oDa-KdzZeNtuy" name="Page-1">
    <mxGraphModel dx="1422" dy="780" grid="1" gridSize="10" guides="1" tooltips="1" connect="1" arrows="1" fold="1" page="1" pageScale="1" pageWidth="827" pageHeight="1169" math="0" shadow="0">
      <root>
        <mxCell id="WIyWlLk6GJQsqaUBKTNV-0" />
        <mxCell id="WIyWlLk6GJQsqaUBKTNV-1" parent="WIyWlLk6GJQsqaUBKTNV-0" />
        <mxCell id="-XwgFw2VL80aHy8WuWpK-0" value="&lt;font style=&quot;font-size: 20px;&quot;&gt;Index.js&lt;/font&gt;" style="rounded=1;whiteSpace=wrap;html=1;fillColor=#ffe6cc;strokeColor=#d79b00;" vertex="1" parent="WIyWlLk6GJQsqaUBKTNV-1">
          <mxGeometry x="70" y="120" width="130" height="40" as="geometry" />
        </mxCell>
        <mxCell id="-XwgFw2VL80aHy8WuWpK-1" value="App.js" style="rounded=1;whiteSpace=wrap;html=1;fontSize=20;fillColor=#ffe6cc;strokeColor=#d79b00;" vertex="1" parent="WIyWlLk6GJQsqaUBKTNV-1">
          <mxGeometry x="360" y="180" width="120" height="60" as="geometry" />
        </mxCell>
        <mxCell id="-XwgFw2VL80aHy8WuWpK-3" value="" style="curved=1;endArrow=classic;html=1;rounded=0;fontSize=20;exitX=1;exitY=0.5;exitDx=0;exitDy=0;entryX=0.5;entryY=0;entryDx=0;entryDy=0;" edge="1" parent="WIyWlLk6GJQsqaUBKTNV-1" source="-XwgFw2VL80aHy8WuWpK-0" target="-XwgFw2VL80aHy8WuWpK-1">
          <mxGeometry width="50" height="50" relative="1" as="geometry">
            <mxPoint x="500" y="350" as="sourcePoint" />
            <mxPoint x="550" y="300" as="targetPoint" />
            <Array as="points">
              <mxPoint x="240" y="100" />
              <mxPoint x="360" y="90" />
            </Array>
          </mxGeometry>
        </mxCell>
        <mxCell id="-XwgFw2VL80aHy8WuWpK-4" value="Header.jsx" style="rounded=1;whiteSpace=wrap;html=1;fontSize=20;" vertex="1" parent="WIyWlLk6GJQsqaUBKTNV-1">
          <mxGeometry x="75" y="300" width="120" height="60" as="geometry" />
        </mxCell>
        <mxCell id="-XwgFw2VL80aHy8WuWpK-7" value="Navigation.jsx" style="rounded=1;whiteSpace=wrap;html=1;fontSize=20;" vertex="1" parent="WIyWlLk6GJQsqaUBKTNV-1">
          <mxGeometry x="230" y="300" width="156" height="60" as="geometry" />
        </mxCell>
        <mxCell id="-XwgFw2VL80aHy8WuWpK-8" value="Dialogs.jsx" style="rounded=1;whiteSpace=wrap;html=1;fontSize=20;" vertex="1" parent="WIyWlLk6GJQsqaUBKTNV-1">
          <mxGeometry x="550" y="300" width="120" height="60" as="geometry" />
        </mxCell>
        <mxCell id="-XwgFw2VL80aHy8WuWpK-9" value="Profile.jsx" style="rounded=1;whiteSpace=wrap;html=1;fontSize=20;" vertex="1" parent="WIyWlLk6GJQsqaUBKTNV-1">
          <mxGeometry x="800" y="300" width="120" height="60" as="geometry" />
        </mxCell>
        <mxCell id="-XwgFw2VL80aHy8WuWpK-10" value="" style="endArrow=classic;html=1;rounded=0;fontSize=20;exitX=0.5;exitY=0;exitDx=0;exitDy=0;entryX=0;entryY=0.5;entryDx=0;entryDy=0;" edge="1" parent="WIyWlLk6GJQsqaUBKTNV-1" source="-XwgFw2VL80aHy8WuWpK-4" target="-XwgFw2VL80aHy8WuWpK-1">
          <mxGeometry width="50" height="50" relative="1" as="geometry">
            <mxPoint x="400" y="420" as="sourcePoint" />
            <mxPoint x="450" y="370" as="targetPoint" />
          </mxGeometry>
        </mxCell>
        <mxCell id="-XwgFw2VL80aHy8WuWpK-11" value="" style="endArrow=classic;html=1;rounded=0;fontSize=20;entryX=0.25;entryY=1;entryDx=0;entryDy=0;" edge="1" parent="WIyWlLk6GJQsqaUBKTNV-1" target="-XwgFw2VL80aHy8WuWpK-1">
          <mxGeometry width="50" height="50" relative="1" as="geometry">
            <mxPoint x="310" y="300" as="sourcePoint" />
            <mxPoint x="360" y="250" as="targetPoint" />
          </mxGeometry>
        </mxCell>
        <mxCell id="-XwgFw2VL80aHy8WuWpK-12" value="react-router" style="rounded=1;whiteSpace=wrap;html=1;fontSize=20;fillColor=#fff2cc;strokeColor=#d6b656;" vertex="1" parent="WIyWlLk6GJQsqaUBKTNV-1">
          <mxGeometry x="670" y="180" width="120" height="60" as="geometry" />
        </mxCell>
        <mxCell id="-XwgFw2VL80aHy8WuWpK-13" value="" style="endArrow=none;dashed=1;html=1;rounded=0;fontSize=20;entryX=0.017;entryY=0.867;entryDx=0;entryDy=0;entryPerimeter=0;" edge="1" parent="WIyWlLk6GJQsqaUBKTNV-1" target="-XwgFw2VL80aHy8WuWpK-12">
          <mxGeometry width="50" height="50" relative="1" as="geometry">
            <mxPoint x="630" y="300" as="sourcePoint" />
            <mxPoint x="680" y="250" as="targetPoint" />
          </mxGeometry>
        </mxCell>
        <mxCell id="-XwgFw2VL80aHy8WuWpK-14" value="" style="endArrow=none;dashed=1;html=1;rounded=0;fontSize=20;entryX=0.85;entryY=1.017;entryDx=0;entryDy=0;entryPerimeter=0;" edge="1" parent="WIyWlLk6GJQsqaUBKTNV-1" target="-XwgFw2VL80aHy8WuWpK-12">
          <mxGeometry width="50" height="50" relative="1" as="geometry">
            <mxPoint x="810" y="300" as="sourcePoint" />
            <mxPoint x="860" y="250" as="targetPoint" />
          </mxGeometry>
        </mxCell>
        <mxCell id="-XwgFw2VL80aHy8WuWpK-15" value="" style="endArrow=classic;html=1;rounded=0;fontSize=20;entryX=1;entryY=0.5;entryDx=0;entryDy=0;" edge="1" parent="WIyWlLk6GJQsqaUBKTNV-1" source="-XwgFw2VL80aHy8WuWpK-12" target="-XwgFw2VL80aHy8WuWpK-1">
          <mxGeometry width="50" height="50" relative="1" as="geometry">
            <mxPoint x="400" y="420" as="sourcePoint" />
            <mxPoint x="450" y="370" as="targetPoint" />
          </mxGeometry>
        </mxCell>
        <mxCell id="-XwgFw2VL80aHy8WuWpK-16" value="MyPosts.jsx" style="rounded=1;whiteSpace=wrap;html=1;fontSize=20;" vertex="1" parent="WIyWlLk6GJQsqaUBKTNV-1">
          <mxGeometry x="940" y="430" width="120" height="60" as="geometry" />
        </mxCell>
        <mxCell id="-XwgFw2VL80aHy8WuWpK-17" value="ProfileInfo.jsx" style="rounded=1;whiteSpace=wrap;html=1;fontSize=20;" vertex="1" parent="WIyWlLk6GJQsqaUBKTNV-1">
          <mxGeometry x="770" y="430" width="140" height="60" as="geometry" />
        </mxCell>
        <mxCell id="-XwgFw2VL80aHy8WuWpK-18" value="" style="endArrow=classic;html=1;rounded=0;fontSize=20;entryX=0.25;entryY=1;entryDx=0;entryDy=0;exitX=0.2;exitY=-0.017;exitDx=0;exitDy=0;exitPerimeter=0;" edge="1" parent="WIyWlLk6GJQsqaUBKTNV-1" source="-XwgFw2VL80aHy8WuWpK-17" target="-XwgFw2VL80aHy8WuWpK-9">
          <mxGeometry width="50" height="50" relative="1" as="geometry">
            <mxPoint x="820" y="420" as="sourcePoint" />
            <mxPoint x="870" y="370" as="targetPoint" />
          </mxGeometry>
        </mxCell>
        <mxCell id="-XwgFw2VL80aHy8WuWpK-19" value="" style="endArrow=classic;html=1;rounded=0;fontSize=20;entryX=0.75;entryY=1;entryDx=0;entryDy=0;exitX=0.25;exitY=0;exitDx=0;exitDy=0;" edge="1" parent="WIyWlLk6GJQsqaUBKTNV-1" source="-XwgFw2VL80aHy8WuWpK-16" target="-XwgFw2VL80aHy8WuWpK-9">
          <mxGeometry width="50" height="50" relative="1" as="geometry">
            <mxPoint x="950" y="430" as="sourcePoint" />
            <mxPoint x="1000" y="380" as="targetPoint" />
          </mxGeometry>
        </mxCell>
        <mxCell id="-XwgFw2VL80aHy8WuWpK-20" value="" style="rounded=0;whiteSpace=wrap;html=1;fontSize=20;" vertex="1" parent="WIyWlLk6GJQsqaUBKTNV-1">
          <mxGeometry x="1020" y="540" width="120" height="60" as="geometry" />
        </mxCell>
        <mxCell id="-XwgFw2VL80aHy8WuWpK-21" value="" style="rounded=0;whiteSpace=wrap;html=1;fontSize=20;" vertex="1" parent="WIyWlLk6GJQsqaUBKTNV-1">
          <mxGeometry x="1040" y="560" width="120" height="60" as="geometry" />
        </mxCell>
        <mxCell id="-XwgFw2VL80aHy8WuWpK-22" value="Post.jsx" style="rounded=0;whiteSpace=wrap;html=1;fontSize=20;" vertex="1" parent="WIyWlLk6GJQsqaUBKTNV-1">
          <mxGeometry x="1060" y="580" width="120" height="60" as="geometry" />
        </mxCell>
        <mxCell id="-XwgFw2VL80aHy8WuWpK-23" value="" style="endArrow=classic;html=1;rounded=0;fontSize=20;exitX=0.45;exitY=-0.017;exitDx=0;exitDy=0;exitPerimeter=0;entryX=0.65;entryY=1.033;entryDx=0;entryDy=0;entryPerimeter=0;" edge="1" parent="WIyWlLk6GJQsqaUBKTNV-1" source="-XwgFw2VL80aHy8WuWpK-20" target="-XwgFw2VL80aHy8WuWpK-16">
          <mxGeometry width="50" height="50" relative="1" as="geometry">
            <mxPoint x="680" y="520" as="sourcePoint" />
            <mxPoint x="730" y="470" as="targetPoint" />
          </mxGeometry>
        </mxCell>
        <mxCell id="-XwgFw2VL80aHy8WuWpK-26" value="DialodMessages" style="rounded=1;whiteSpace=wrap;html=1;fontSize=20;" vertex="1" parent="WIyWlLk6GJQsqaUBKTNV-1">
          <mxGeometry x="670" y="540" width="170" height="60" as="geometry" />
        </mxCell>
        <mxCell id="-XwgFw2VL80aHy8WuWpK-28" value="" style="endArrow=classic;html=1;rounded=0;fontSize=20;exitX=0;exitY=0.75;exitDx=0;exitDy=0;entryX=1;entryY=0.5;entryDx=0;entryDy=0;" edge="1" parent="WIyWlLk6GJQsqaUBKTNV-1" source="-XwgFw2VL80aHy8WuWpK-20" target="-XwgFw2VL80aHy8WuWpK-26">
          <mxGeometry width="50" height="50" relative="1" as="geometry">
            <mxPoint x="680" y="460" as="sourcePoint" />
            <mxPoint x="730" y="410" as="targetPoint" />
          </mxGeometry>
        </mxCell>
        <mxCell id="-XwgFw2VL80aHy8WuWpK-29" value="" style="rounded=0;whiteSpace=wrap;html=1;fontSize=20;" vertex="1" parent="WIyWlLk6GJQsqaUBKTNV-1">
          <mxGeometry x="510" y="540" width="120" height="60" as="geometry" />
        </mxCell>
        <mxCell id="-XwgFw2VL80aHy8WuWpK-30" value="" style="rounded=0;whiteSpace=wrap;html=1;fontSize=20;" vertex="1" parent="WIyWlLk6GJQsqaUBKTNV-1">
          <mxGeometry x="520" y="550" width="120" height="60" as="geometry" />
        </mxCell>
        <mxCell id="-XwgFw2VL80aHy8WuWpK-31" value="&lt;font style=&quot;font-size: 19px;&quot;&gt;DialogLink.jsx&lt;/font&gt;" style="rounded=0;whiteSpace=wrap;html=1;fontSize=20;" vertex="1" parent="WIyWlLk6GJQsqaUBKTNV-1">
          <mxGeometry x="530" y="560" width="120" height="60" as="geometry" />
        </mxCell>
        <mxCell id="-XwgFw2VL80aHy8WuWpK-32" value="" style="endArrow=classic;html=1;rounded=0;fontSize=19;entryX=0.167;entryY=1.033;entryDx=0;entryDy=0;entryPerimeter=0;exitX=0.5;exitY=0;exitDx=0;exitDy=0;" edge="1" parent="WIyWlLk6GJQsqaUBKTNV-1" source="-XwgFw2VL80aHy8WuWpK-29">
          <mxGeometry width="50" height="50" relative="1" as="geometry">
            <mxPoint x="560" y="550" as="sourcePoint" />
            <mxPoint x="580.04" y="491.98" as="targetPoint" />
          </mxGeometry>
        </mxCell>
        <mxCell id="-XwgFw2VL80aHy8WuWpK-33" value="" style="endArrow=classic;html=1;rounded=0;fontSize=19;entryX=0.858;entryY=1.033;entryDx=0;entryDy=0;entryPerimeter=0;" edge="1" parent="WIyWlLk6GJQsqaUBKTNV-1">
          <mxGeometry width="50" height="50" relative="1" as="geometry">
            <mxPoint x="680" y="540" as="sourcePoint" />
            <mxPoint x="662.96" y="491.98" as="targetPoint" />
          </mxGeometry>
        </mxCell>
        <mxCell id="-XwgFw2VL80aHy8WuWpK-35" value="" style="rounded=0;whiteSpace=wrap;html=1;fontSize=20;" vertex="1" parent="WIyWlLk6GJQsqaUBKTNV-1">
          <mxGeometry x="540" y="410" width="120" height="60" as="geometry" />
        </mxCell>
        <mxCell id="-XwgFw2VL80aHy8WuWpK-36" value="" style="rounded=0;whiteSpace=wrap;html=1;fontSize=20;" vertex="1" parent="WIyWlLk6GJQsqaUBKTNV-1">
          <mxGeometry x="550" y="420" width="120" height="60" as="geometry" />
        </mxCell>
        <mxCell id="-XwgFw2VL80aHy8WuWpK-37" value="&lt;font style=&quot;font-size: 19px;&quot;&gt;Dialog.jsx&lt;/font&gt;" style="rounded=0;whiteSpace=wrap;html=1;fontSize=20;" vertex="1" parent="WIyWlLk6GJQsqaUBKTNV-1">
          <mxGeometry x="560" y="430" width="120" height="60" as="geometry" />
        </mxCell>
        <mxCell id="-XwgFw2VL80aHy8WuWpK-38" value="" style="endArrow=classic;html=1;rounded=0;fontSize=19;entryX=0.25;entryY=1;entryDx=0;entryDy=0;" edge="1" parent="WIyWlLk6GJQsqaUBKTNV-1" target="-XwgFw2VL80aHy8WuWpK-8">
          <mxGeometry width="50" height="50" relative="1" as="geometry">
            <mxPoint x="580" y="410" as="sourcePoint" />
            <mxPoint x="630" y="360" as="targetPoint" />
          </mxGeometry>
        </mxCell>
      </root>
    </mxGraphModel>
  </diagram>
</mxfile>
